HIERARCHY
ROOT hip
{
  OFFSET -4.56173 83.8317 38.7167
  CHANNELS 6 Xposition Yposition Zposition Zrotation Xrotation Yrotation
  JOINT abdomen
  {
    OFFSET 0 20.6881 -0.73152
    CHANNELS 3 Zrotation Xrotation Yrotation
    JOINT chest
    {
      OFFSET 0 11.7043 -0.48768
      CHANNELS 3 Zrotation Xrotation Yrotation
      JOINT neck
      {
        OFFSET 0 22.1894 -2.19456
        CHANNELS 3 Zrotation Xrotation Yrotation
        JOINT head
        {
          OFFSET -0.24384 7.07133 1.2192
          CHANNELS 3 Zrotation Xrotation Yrotation
          JOINT leftEye
          {
            OFFSET 4.14528 8.04674 8.04672
            CHANNELS 3 Zrotation Xrotation Yrotation
            End Site
            {
              OFFSET 1 0 0
            }
          }
          JOINT rightEye
          {
            OFFSET -3.6576 8.04674 8.04672
            CHANNELS 3 Zrotation Xrotation Yrotation
            End Site
            {
              OFFSET 1 0 0
            }
          }
        }
      }
      JOINT rCollar
      {
        OFFSET -2.68224 19.2634 -4.8768
        CHANNELS 3 Zrotation Xrotation Yrotation
        JOINT rShldr
        {
          OFFSET -8.77824 -1.95073 1.46304
          CHANNELS 3 Zrotation Xrotation Yrotation
          JOINT rForeArm
          {
            OFFSET -28.1742 -1.7115 0.48768
            CHANNELS 3 Zrotation Xrotation Yrotation
            JOINT rHand
            {
              OFFSET -22.5879 0.773209 7.07136
              CHANNELS 3 Zrotation Xrotation Yrotation
              JOINT rThumb1
              {
                OFFSET -1.2192 -0.487915 3.41376
                CHANNELS 3 Zrotation Xrotation Yrotation
                JOINT rThumb2
                {
                  OFFSET -3.37035 -0.52449 3.41376
                  CHANNELS 3 Zrotation Xrotation Yrotation
                  End Site
                  {
                    OFFSET -1.78271 -1.18214 1.43049
                  }
                }
              }
              JOINT rIndex1
              {
                OFFSET -7.75947 0.938293 5.60832
                CHANNELS 3 Zrotation Xrotation Yrotation
                JOINT rIndex2
                {
                  OFFSET -2.54057 -0.884171 1.56538
                  CHANNELS 3 Zrotation Xrotation Yrotation
                  End Site
                  {
                    OFFSET -1.62519 -0.234802 1.16502
                  }
                }
              }
              JOINT rMid1
              {
                OFFSET -8.24714 1.18213 3.41376
                CHANNELS 3 Zrotation Xrotation Yrotation
                JOINT rMid2
                {
                  OFFSET -3.10165 -0.590103 1.0647
                  CHANNELS 3 Zrotation Xrotation Yrotation
                  End Site
                  {
                    OFFSET -2.48547 -0.328903 0.83742
                  }
                }
              }
              JOINT rRing1
              {
                OFFSET -8.82822 0.546677 1.51678
                CHANNELS 3 Zrotation Xrotation Yrotation
                JOINT rRing2
                {
                  OFFSET -2.60934 -0.819778 -0.0198488
                  CHANNELS 3 Zrotation Xrotation Yrotation
                  End Site
                  {
                    OFFSET -2.33842 -0.294052 0.168128
                  }
                }
              }
              JOINT rPinky1
              {
                OFFSET -8.27202 -0.0477905 -0.4584
                CHANNELS 3 Zrotation Xrotation Yrotation
                JOINT rPinky2
                {
                  OFFSET -1.82734 -0.647385 -0.700984
                  CHANNELS 3 Zrotation Xrotation Yrotation
                  End Site
                  {
                    OFFSET -1.69225 -0.51767 -0.607171
                  }
                }
              }
            }
          }
        }
      }
      JOINT lCollar
      {
        OFFSET 2.68224 19.2634 -4.8768
        CHANNELS 3 Zrotation Xrotation Yrotation
        JOINT lShldr
        {
          OFFSET 8.77824 -1.95073 1.46304
          CHANNELS 3 Zrotation Xrotation Yrotation
          JOINT lForeArm
          {
            OFFSET 28.1742 -1.7115 0.48768
            CHANNELS 3 Zrotation Xrotation Yrotation
            JOINT lHand
            {
              OFFSET 22.5879 0.773209 7.07136
              CHANNELS 3 Zrotation Xrotation Yrotation
              JOINT lThumb1
              {
                OFFSET 1.2192 -0.487915 3.41376
                CHANNELS 3 Zrotation Xrotation Yrotation
                JOINT lThumb2
                {
                  OFFSET 3.37035 -0.52449 3.41376
                  CHANNELS 3 Zrotation Xrotation Yrotation
                  End Site
                  {
                    OFFSET 1.78271 -1.18214 1.43049
                  }
                }
              }
              JOINT lIndex1
              {
                OFFSET 7.75947 0.938293 5.60832
                CHANNELS 3 Zrotation Xrotation Yrotation
                JOINT lIndex2
                {
                  OFFSET 2.54057 -0.884171 1.56538
                  CHANNELS 3 Zrotation Xrotation Yrotation
                  End Site
                  {
                    OFFSET 1.62519 -0.234802 1.16502
                  }
                }
              }
              JOINT lMid1
              {
                OFFSET 8.24714 1.18213 3.41376
                CHANNELS 3 Zrotation Xrotation Yrotation
                JOINT lMid2
                {
                  OFFSET 3.10165 -0.590103 1.0647
                  CHANNELS 3 Zrotation Xrotation Yrotation
                  End Site
                  {
                    OFFSET 2.48547 -0.328903 0.83742
                  }
                }
              }
              JOINT lRing1
              {
                OFFSET 8.82822 0.546677 1.51678
                CHANNELS 3 Zrotation Xrotation Yrotation
                JOINT lRing2
                {
                  OFFSET 2.60934 -0.819778 -0.0198488
                  CHANNELS 3 Zrotation Xrotation Yrotation
                  End Site
                  {
                    OFFSET 2.33842 -0.294052 0.168128
                  }
                }
              }
              JOINT lPinky1
              {
                OFFSET 8.27202 -0.0477905 -0.4584
                CHANNELS 3 Zrotation Xrotation Yrotation
                JOINT lPinky2
                {
                  OFFSET 1.82734 -0.647385 -0.700984
                  CHANNELS 3 Zrotation Xrotation Yrotation
                  End Site
                  {
                    OFFSET 1.69225 -0.51767 -0.607171
                  }
                }
              }
            }
          }
        }
      }
    }
  }
  JOINT rButtock
  {
    OFFSET -8.77824 4.35084 1.2192
    CHANNELS 3 Zrotation Xrotation Yrotation
    JOINT rThigh
    {
      OFFSET 0 -1.70687 -2.19456
      CHANNELS 3 Zrotation Xrotation Yrotation
      JOINT rShin
      {
        OFFSET 0 -36.8199 0.73152
        CHANNELS 3 Zrotation Xrotation Yrotation
        JOINT rFoot
        {
          OFFSET 0.73152 -45.1104 -5.12064
          CHANNELS 3 Zrotation Xrotation Yrotation
          End Site
          {
            OFFSET -1.1221 -3.69964 12.103
          }
        }
      }
    }
  }
  JOINT lButtock
  {
    OFFSET 8.77824 4.35084 1.2192
    CHANNELS 3 Zrotation Xrotation Yrotation
    JOINT lThigh
    {
      OFFSET 0 -1.70687 -2.19456
      CHANNELS 3 Zrotation Xrotation Yrotation
      JOINT lShin
      {
        OFFSET 0 -36.8199 0.73152
        CHANNELS 3 Zrotation Xrotation Yrotation
        JOINT lFoot
        {
          OFFSET -0.73152 -45.1104 -5.12064
          CHANNELS 3 Zrotation Xrotation Yrotation
          End Site
          {
            OFFSET 1.1221 -3.69964 12.103
          }
        }
      }
    }
  }
}
MOTION
Frames:	4
Frame Time:	0.00833333
-3.8987 84.2564 38.1802 0.943672 0.00141494 -0.0174858 -1.24151 -0.00398119 -0.0340788 -0.342494 -0.00249265 -0.0593271 -5.46699e-014 0 -8.69683e-017 -1.63795e-013 3.18055e-015 -2.3761e-016 -0 0 0 -0 0 0 -2.71862e-014 -3.80486e-017 9.93923e-017 -5.70703e-013 -4.96962e-016 -1.59028e-015 -9.86166e-012 2.93168e-012 6.04305e-014 -1.1297e-010 -3.0906e-012 -3.37139e-013 -2.66463e-010 -3.48716e-013 -5.40694e-013 -4.60179e-010 -6.07486e-013 -9.46215e-013 -2.66461e-010 -3.49861e-013 -5.50236e-013 7.73091 5.47488 0.417314 -2.66463e-010 -3.49066e-013 -5.43875e-013 2.90554 0.965183 0.102902 -2.66458e-010 -3.48867e-013 -5.4626e-013 10.2786 0.731801 0.0259123 -2.6647e-010 -3.45488e-013 -5.47055e-013 2.22167 -0.733487 -0.20892 -2.72826e-014 -3.68839e-017 -1.49089e-016 -5.74236e-013 -1.98785e-016 -3.37934e-015 -9.88079e-012 -2.97382e-012 9.85972e-014 -1.12958e-010 2.82543e-012 -3.56222e-013 -2.66471e-010 -3.34757e-013 -5.56597e-013 -4.60178e-010 -5.82042e-013 -9.35878e-013 -2.66479e-010 -3.32766e-013 -5.40694e-013 -7.73091 5.47488 -0.417314 -2.66471e-010 -3.3525e-013 -5.50236e-013 -2.90554 0.965183 -0.102902 -2.66475e-010 -3.34654e-013 -5.47055e-013 -10.2786 0.731801 -0.0259123 -2.66468e-010 -3.34753e-013 -5.50236e-013 -2.22167 -0.733487 0.20892 -2.03217e-016 0 -3.88251e-019 -0.453839 -1.92099 -0.00952713 -0.00915561 -2.07857 -0.0755522 -0.487453 3.99699 0.136653 2.03217e-016 0 3.88251e-019 -1.43728 -5.97115 0.129662 -0.00126419 5.25795 -0.0454134 0.507826 0.710745 -0.0722753 
-4.35828 84.0007 36.9523 0.131499 0.680162 0.123686 -0.909233 -0.142966 0.0607791 0.131227 -0.78665 -0.00670609 -0.64284 1.27495 -0.652895 2.18254 -1.84911 -1.04171 -0 0 0 -0 0 0 -3.2972e-014 -1.83582e-015 -9.24815e-016 22.9056 6.68251 -4.23438 -6.54989 -3.65522 9.38548 0.0335262 4.06369 0.565938 -4.59176e-011 -1.99079e-010 1.13136e-010 -7.74397e-011 -3.4444e-010 1.93581e-010 -4.59147e-011 -1.99078e-010 1.13127e-010 7.73091 5.47488 0.417314 -4.59184e-011 -1.99077e-010 1.13134e-010 2.90554 0.965183 0.102902 -4.59111e-011 -1.99077e-010 1.13134e-010 10.2786 0.731801 0.0259123 -4.59236e-011 -1.99076e-010 1.13138e-010 2.22167 -0.733487 -0.20892 -3.31137e-014 -1.83461e-015 -1.21872e-015 -23.4585 6.45262 2.51028 5.56912 -2.8734 -8.29372 -0.00871567 2.07121 -0.290403 -1.35161e-010 9.22686e-011 7.76457e-011 -2.33173e-010 1.59642e-010 1.33985e-010 -1.35169e-010 9.22723e-011 7.76616e-011 -7.73091 5.47488 -0.417314 -1.3516e-010 9.22685e-011 7.76524e-011 -2.90554 0.965183 -0.102902 -1.35165e-010 9.22689e-011 7.76526e-011 -10.2786 0.731801 -0.0259123 -1.35157e-010 9.2269e-011 7.76477e-011 -2.22167 -0.733487 0.20892 -2.03217e-016 0 -3.88251e-019 -1.475 -0.518658 0.658927 -0.00405442 -1.42956 -0.0410971 -0.592886 -1.38773 -3.14284 2.03217e-016 0 3.88251e-019 0.875673 -7.52934 -2.9592 -0.0120576 10.0274 -0.175952 0.918801 -4.3397 3.95873 
-4.46447 84.0056 36.6623 -0.730902 1.39901 0.273407 -0.55852 -0.290063 0.161876 0.634023 -1.61642 0.0491977 -1.29021 2.61942 -1.34476 4.41868 -3.80392 -2.14748 -0 0 0 -0 0 0 -4.00344e-014 -4.04306e-015 -1.77043e-015 48.2172 13.6202 -8.90264 -12.1855 -7.18951 19.4232 -0.0191975 8.36357 1.1745 1.87419e-010 -4.10836e-010 2.43278e-010 3.27608e-010 -7.10894e-010 4.16483e-010 1.87421e-010 -4.10831e-010 2.43269e-010 7.73091 5.47488 0.417314 1.87417e-010 -4.10831e-010 2.43277e-010 2.90554 0.965183 0.102902 1.87426e-010 -4.10831e-010 2.43278e-010 10.2786 0.731801 0.0259123 1.87414e-010 -4.10832e-010 2.43287e-010 2.22167 -0.733487 -0.20892 -4.02276e-014 -4.04177e-015 -2.11519e-015 -48.8871 13.2318 5.27332 10.5623 -5.71092 -17.1285 0.00495235 4.25804 -0.598305 1.46694e-011 2.05956e-010 1.62424e-010 2.58621e-011 3.56336e-010 2.80149e-010 1.46616e-011 2.05962e-010 1.6244e-010 -7.73091 5.47488 -0.417314 1.46702e-011 2.05957e-010 1.62431e-010 -2.90554 0.965183 -0.102902 1.46646e-011 2.05957e-010 1.62428e-010 -10.2786 0.731801 -0.0259123 1.46756e-011 2.05957e-010 1.62422e-010 -2.22167 -0.733487 0.20892 -2.03217e-016 0 -3.88251e-019 -2.58996 0.962277 1.3652 0.000489211 -0.743464 -0.00470231 -1.37694 -7.03626 -6.65783 2.03217e-016 0 3.88251e-019 3.13666 -9.14485 -6.24946 0.000983432 15.0698 -0.319651 2.13295 -9.59986 8.31409 
-4.46609 84.0047 36.6518 -1.50289 2.03761 0.40626 -0.243297 -0.420933 0.250501 1.08299 -2.35496 0.0986212 -1.8412 3.82285 -1.96257 6.3452 -5.53999 -3.13819 -0 0 0 -0 0 0 -4.45435e-014 -5.43137e-015 -2.97323e-015 71.8066 19.5964 -13.4064 -16.1747 -9.79032 28.5517 -0.144943 12.1863 1.7326 3.95174e-010 -5.96541e-010 3.40491e-010 6.88038e-010 -1.0321e-009 5.82636e-010 3.95177e-010 -5.96534e-010 3.40481e-010 7.73091 5.47488 0.417314 3.95172e-010 -5.96533e-010 3.40491e-010 2.90554 0.965183 0.102902 3.95182e-010 -5.96534e-010 3.40494e-010 10.2786 0.731801 0.0259123 3.9517e-010 -5.96536e-010 3.40507e-010 2.22167 -0.733487 -0.20892 -4.47759e-014 -5.43007e-015 -3.35799e-015 -72.1511 19.2048 7.92682 14.2792 -7.89921 -25.1041 0.0371547 6.21299 -0.875784 1.27459e-010 2.77475e-010 2.3405e-010 2.20837e-010 4.80089e-010 4.03826e-010 1.27451e-010 2.77482e-010 2.34066e-010 -7.73091 5.47488 -0.417314 1.2746e-010 2.77476e-010 2.34058e-010 -2.90554 0.965183 -0.102902 1.27454e-010 2.77476e-010 2.34052e-010 -10.2786 0.731801 -0.0259123 1.27467e-010 2.77476e-010 2.34044e-010 -2.22167 -0.733487 0.20892 -2.03217e-016 0 -3.88251e-019 -3.61551 2.28451 1.99733 0.00380695 -0.131522 0.0277523 -2.67374 -11.987 -9.91676 2.03217e-016 0 3.88251e-019 4.99276 -10.5408 -9.21575 0.0353684 19.566 -0.455661 3.91062 -14.1494 12.3675 
